<?xml version="1.0" encoding="UTF-8"?>
<svg id="Layer_1" xmlns="http://www.w3.org/2000/svg" version="1.1" viewBox="0 0 1024 1024">
  <!-- Generator: Adobe Illustrator 30.6.0, SVG Export Plug-In . SVG Version: 2.1.4 Build 109)  -->
  <defs>
    <style>
      .st0 {
        fill: #2e64ba;
      }

      .st1 {
        fill: #e6d475;
      }

      .st2 {
        fill: #152641;
      }

      .st3 {
        fill: #f4bf2d;
      }

      .st4 {
        fill: #3265b9;
      }

      .st5 {
        fill: #f0bf2b;
      }

      .st6 {
        fill: #2f64ba;
      }

      .st7 {
        fill: #142541;
      }

      .st8 {
        fill: #3164b9;
      }

      .st9 {
        fill: #122340;
      }

      .st10 {
        fill: #2c63bd;
      }

      .st11 {
        fill: #3264b9;
      }

      .st12 {
        fill: #ebc453;
      }

      .st13 {
        fill: #fdfdfd;
      }
    </style>
  </defs>
  <path class="st2" d="M0,797.4c0-.4.2-.9.5-1,48.4-22.8,100.5-38.1,154.3-42.1,84.7-7.7,169,14.9,245.6,40.6l149.5,54.7c135,45.9,302.2,93.5,437.4,9.5-87.5,50-193.2,47.7-289.4,25.1l-69.8-19.1c-34-10.9-67.7-22.9-100.9-36l-115.2-46c-82.3-31-164.8-56.3-254.3-52.7-53.7,2.1-105.6,14.4-155,35.2l-2.7.4v-232.6c0,0,0-328.2,0-328.2,0-62.4,25.3-119,73.2-158.7C104.9,19.4,153.3.2,194.8.2l634.9-.2c46.9,2.1,91.2,20,126,51l16.9,16.8c19.8,22.5,34.4,48.6,42.7,77.5,5.5,18.9,8.5,38.2,8.5,58.1v315.7c0,0,0,78.6,0,78.6v231.9c-.7,13.8-2,26.9-5.4,40.2-7.1,32.4-24,63.4-46.1,87.8l-13.8,13.7c-20.3,18.9-44.3,32.7-70.7,41.7-21.5,7.3-43.8,10.9-66.7,10.9H193.4c-37.6-1.7-73.7-13.4-104.7-34.3-12.7-8.5-24.1-18.5-34.6-29.7-18.8-20-33.5-43.3-42.5-69.2-7.2-20.7-11.4-41.9-11.4-63.8v-29.6Z"/>
  <g>
    <g>
      <path class="st6" d="M636.2,825.6l2.7-7.2h22.7c0-.1,1.8,6.3,1.8,6.3l62.9-1.5-.2-12.5-47.8-5-37.9-2.8,40.1-79.1,11-21.9,28.1-56.1c-.4,54.2.3,106.9,2.3,160.4,1.3.5,2.5.5,4.4.3l-.5-81.3-.3-94.7c0-1.2,2.9-1.1,2.9,0l.7,21,1.5,97.9.7,36.4.5,37,67.5-3.3,26.3-2.7c-3.9,5.9-8.9,10.1-13.4,15s-6.6,7.3-10.9,10.6h-69.6c0,0-102-.8-102-.8-3.6-4.7-6.8-9.5-9.3-15.5l15.9-.6Z"/>
      <path class="st6" d="M813.5,810.2c-23.7-4.3-49.4-1.5-73,3.2,9.6-28.6,8.9-60.2,6.7-89.7-1.9-23.7-6.1-46.2-11-70l23.8,44.2,16.2,31.9,37.3,80.3Z"/>
    </g>
    <polygon class="st8" points="663.1 580.1 615.4 580.2 615.4 602.8 668.3 602.9 668.3 616.8 641.6 617 599.7 617.1 599.6 531.4 667.2 531.4 667.2 545.5 615.4 545.5 615.4 566.1 663.3 566.1 663.1 580.1"/>
    <polygon class="st11" points="242.3 531.5 259.9 531.4 251.4 549.5 220.5 617 204.7 617 181.2 563.9 166.9 531.6 184.1 531.5 193.3 552.8 212.9 597.9 232.7 553.5 242.3 531.5"/>
    <g>
      <path class="st13" d="M382.8,483h-137.3c-39.1,0-73.5-17.2-77.3-58.6s-1.3-10.4-.5-16.2h50.4c.8,4.8,1.1,9,3,13.1,4.6,10.2,16.5,12.9,27.7,12.9h134.9c4.5,0,8.3-.8,12.4-1.8,7.9-2,13.7-8.2,15.2-16.4s1.7-17.1,0-25.4c-2.8-12.8-15.8-17.9-28.7-17.9h-139.2c-11.7,0-22.7-1.7-33.6-5.5-6.1-2.1-11.4-5-16.6-8.8-20.8-14.9-26.2-37.4-25.8-62.2.2-9.2.1-17.8,1.7-26.8,2.3-13,7.5-25.3,16.9-34.7,15.3-15.2,38-20.9,59.6-20.9h139.2c19.6,0,36.4,3.1,52.5,14.2,7.1,5,12.6,11,16.7,18.7,7,13.1,10.4,27.5,9.7,42.7h-51.9c-.5-5.2-.8-9.9-3.2-14.3-5.2-9.5-16.1-11.9-26.9-11.9h-134.5c-12.6,0-24.8,5.9-26.8,18.4-1.2,7.5-1.2,15.2-.2,22.9,1.8,13.3,14.7,18.5,27.6,18.6l142.3.2c14.2,0,27.7,4,40,10.5,22.7,11.9,34.8,35.5,35.1,60.9.2,18.9.3,33.9-8.3,51.4-5.3,10.7-13.8,19.8-24.3,25.7-14.1,8-32.7,11.1-49.6,11.1Z"/>
      <path class="st13" d="M761.9,450.2l19.5,17.7,12.3,11.4c.4.4,1.1,2.7.1,2.7h-74.1c-3-1.5-4.8-3.7-7.3-6l-72.3-65.8-46.5-42.6-29.7,22.7-7.9,6.4v82.4c0,1.8-1.1,2.9-2.9,2.9h-45.5c-1.8,0-2.9-1.2-2.9-3v-211.1c0,0-.2-50.1-.2-50.1,0-1.7,1-2.7,2.7-2.7h45.9c1.7,0,2.8.9,2.8,2.8v120.6s31.4-25,31.4-25l86.8-68.7,34.5-27.2c1.3-1,2.6-2.5,4.5-2.5h71.7c.8,0,1.6.4,1.8.9s-.2,1.5-1,2.1l-73.8,58.4-76.2,60.3,18.8,17.1,39.5,35.3,44.7,40.2,23.3,20.8Z"/>
      <g>
        <path class="st10" d="M857.4,344.1c.2.4.4,1,.2,1.1-29,17.2-59.2,34.7-88.3,51.3l-1.2-.5c-.3-.2-.8-.6-.8-1.1v-27.1s0-69.5,0-69.5c0-2,1-3.2,2.3-4s2.9-1,4.3-.1l33,19.6,19.9,11.8,29.1,17.3,1.5,1.2Z"/>
        <path class="st5" d="M768.1,396l2.8-1.8,4.2-2.3,82.2-47.7,10.5,5.9c1.7,1,1.6,3.9,1.1,5.6s-1.8,2.7-3.6,3.7l-39.5,22.8-52,30.2c-1.5.9-3.5.3-4.7-.4s-2.2-2.2-2.2-3.9v-9.9c0-.7.5-1.9,1-2Z"/>
      </g>
    </g>
    <rect class="st4" x="302.3" y="566.4" width="85.8" height="15.9" transform="translate(-229.2 919.4) rotate(-90)"/>
    <g>
      <path class="st8" d="M515,548.9c11.1,16.2,10.2,38.1-2.4,53.1s-21.4,15-34.7,15l-38.2.2v-85.7s40.7.1,40.7.1c12.1,0,23.1,5.4,31.6,13.6l3.1,3.8Z"/>
      <path class="st9" d="M492.4,549.3c16.4,7.9,18.9,31.5,6.8,44.5-5.4,5.8-13.1,8.6-20.9,8.7l-23.1.2v-57.1c0,0,21,.1,21,.1,5.7,0,11.3,1.1,16.2,3.6Z"/>
    </g>
    <g>
      <ellipse class="st11" cx="783.3" cy="574.1" rx="46.3" ry="46.2"/>
      <ellipse class="st7" cx="783.4" cy="573.9" rx="30.7" ry="30.6"/>
    </g>
    <g>
      <path class="st0" d="M0,797.4v-31.4c23.6-10.3,48.1-19,73.7-25,38-9,77.1-13.1,116.2-11.7,30.5,1.1,60.4,5.2,90.1,11.5l48.8,12.6c31.2,9.3,61.6,19.9,91.8,32l46,18.4,56.2,22.5c34.8,13.9,69.8,26.5,105.5,37.9l69.8,19c37.9,8.7,76.3,14.3,115.3,15.3,35.8.9,71.2-3.1,105.7-12.4,30.9-8.4,64-23.3,89.7-42.2l1.4-1.3c.3-.2.5-.5.9-.4s.3.3,0,.5l-.6.7c-9.4,7.4-18.7,14.3-29.1,20.5-19.6,11.8-40.4,20.7-62.3,27.4-30.5,9.2-61.6,14.1-93.5,14.8-24.3.6-47.9-.6-72-3.6s-61-9.9-91.2-17.5l-57-15.9-55.9-18.5-72.7-26.5-76.8-28.2-56.9-18c-51.7-14.5-100.1-23.8-154.2-23.9-29.5,0-58.5,3.2-87.3,9-34.3,7-66.9,18.6-98.3,33.4-1.3.6-2.1,1.1-3.3,1Z"/>
      <path class="st3" d="M354.9,832.5c20.6,5.6,40.5,12.6,60.3,21l51.5,21.8,40.4,17.7,85.3,34.4c62.6,22.6,123.1,38.3,189.7,42.1v.4c10.1.6,20.3.9,30.6.7l.2,1.1c-13.8.3-27.6.5-41.4.6-21.5-.9-42.5-3.1-63.9-6.6-24.8-4-49.1-8.8-73.4-15.2l-58.8-17.7-74.6-27.8-51.1-21.1-38.6-15.8-49.7-18.3c-41.6-14.2-92.6-25.7-136.5-25.7h-12.8c-23.6,0-61.6,5-84.3,11.5l-17.7,5.1c-5.1,1.2-10.1,2.7-15.2,4.4-3.5-.4,0-2.4,1.6-3.1,13.5-6,28.7-10.8,43.2-14.7,70.7-19,144.2-15.8,213.2,5.2h2Z"/>
      <path class="st12" d="M354.9,832.5c-1.2.8-2.5,0-3.8-.3l-25.9-6.7-15.7-3.4-5.8-1.1-6.3-1.1-7.4-1.1-7.9-1.1-9.1-1-9-.9-8-.4-5.3-.5h-27.9c0-.1-3.7.4-3.7.4l-5.8.4c-4.8-.2-9.1.3-13.8.9l-9,1.1-8,1-6.3,1.1-6.3,1-6.3,1.2c-21.6,4-42.4,10.4-62.8,18.5-1.3.5-1.7,2-3.7,1.7s-2,1.1-2.6,1.3c.9,1.2,1.7.6,2.6.3l10.1-3.2c1.2-.4,2.4-.9,3-.1l-18.6,6.2-10.9,4.5-29,13.2c43.5-27.6,100.1-44.5,151.2-48.7l7.8-.7,8-.5,11.1-.2c4.2-.6,8-.1,12.2,0l12.9.4,9,.5c22.2,1.8,43.9,4.7,65.5,10.5l25.7,6.9Z"/>
      <path class="st1" d="M804,972.4c-7.5.4-15.4.4-22.9,0h-9.6c.4-.3.7-.5,1.3-.5h39.1s0-1,0-1l-22.2-.2c-3.2,0-6.1-.9-9.5-.3.4-1.1,1.4-.7,2-.9,2.3.1,4.2.5,6.6,0,2.6,1.1,5.1.5,7.9.6,21.9.7,43.1-1,64.9-3.6-14,3.2-28.3,4.1-42.8,5.4l-14.8.4Z"/>
      <path class="st3" d="M804,972.4c0,.2-.2.5-.6.5h-21.6c-.4,0-.6-.3-.8-.5h22.9Z"/>
    </g>
  </g>
</svg>